<svg width="20" height="20" viewBox="0 0 20 20" fill="none" xmlns="http://www.w3.org/2000/svg">
<g id="Frame" clip-path="url(#clip0_79_13)">
<path id="Vector" d="M7.575 12.975L1.675 18.875C1.49167 19.0583 1.25833 19.15 0.975 19.15C0.691667 19.15 0.458333 19.0583 0.275 18.875C0.0916668 18.6917 0 18.4583 0 18.175C0 17.8917 0.0916668 17.6583 0.275 17.475L6.175 11.575H2.575C2.29167 11.575 2.054 11.479 1.862 11.287C1.67 11.095 1.57433 10.8577 1.575 10.575C1.575 10.2917 1.671 10.054 1.863 9.862C2.055 9.67 2.29233 9.57433 2.575 9.575H8.575C8.85833 9.575 9.096 9.671 9.288 9.863C9.48 10.055 9.57567 10.2923 9.575 10.575V16.575C9.575 16.8583 9.479 17.096 9.287 17.288C9.095 17.48 8.85767 17.5757 8.575 17.575C8.29167 17.575 8.054 17.479 7.862 17.287C7.67 17.095 7.57433 16.8577 7.575 16.575V12.975ZM12.975 7.575H16.575C16.8583 7.575 17.096 7.671 17.288 7.863C17.48 8.055 17.5757 8.29233 17.575 8.575C17.575 8.85833 17.479 9.096 17.287 9.288C17.095 9.48 16.8577 9.57567 16.575 9.575H10.575C10.2917 9.575 10.054 9.479 9.862 9.287C9.67 9.095 9.57433 8.85767 9.575 8.575V2.575C9.575 2.29167 9.671 2.054 9.863 1.862C10.055 1.67 10.2923 1.57433 10.575 1.575C10.8583 1.575 11.096 1.671 11.288 1.863C11.48 2.055 11.5757 2.29233 11.575 2.575V6.175L17.475 0.275C17.6583 0.0916668 17.8917 0 18.175 0C18.4583 0 18.6917 0.0916668 18.875 0.275C19.0583 0.458333 19.15 0.691667 19.15 0.975C19.15 1.25833 19.0583 1.49167 18.875 1.675L12.975 7.575Z" fill="#222222"/>
</g>
<defs>
<clipPath id="clip0_79_13">
<rect width="20" height="20" fill="white"/>
</clipPath>
</defs>
</svg>
