<svg width="22" height="22" viewBox="0 0 22 22" fill="none" xmlns="http://www.w3.org/2000/svg">
<path d="M15.6826 12.0004L11.6826 21.0004C10.887 21.0004 10.1239 20.6843 9.56132 20.1217C8.99872 19.5591 8.68262 18.796 8.68262 18.0004V14.0004H3.02265C2.73274 14.0036 2.44559 13.9439 2.18108 13.8251C1.91657 13.7064 1.68104 13.5316 1.49079 13.3128C1.30055 13.0941 1.16015 12.8365 1.07931 12.5581C0.998478 12.2797 0.979138 11.987 1.02265 11.7004L2.40265 2.70036C2.47497 2.22346 2.71722 1.78875 3.08474 1.47636C3.45227 1.16396 3.92032 0.994912 4.40265 1.00036H15.6826M15.6826 12.0004V1.00036M15.6826 12.0004H18.3526C18.9186 12.0104 19.4685 11.8122 19.898 11.4435C20.3276 11.0749 20.6068 10.5613 20.6826 10.0004V3.00036C20.6068 2.43942 20.3276 1.92586 19.898 1.55718C19.4685 1.1885 18.9186 0.990352 18.3526 1.00036H15.6826" stroke="#446248" stroke-width="2" stroke-linecap="round" stroke-linejoin="round"/>
<path d="M10.3428 19.9937C10.3428 19.1292 11.0263 18.7295 11.4113 17.9595C11.7512 17.2796 12.1761 16.5824 12.3873 15.843C12.4961 15.4621 12.9061 15.4388 12.9318 15.0005C12.944 14.7936 13.1306 14.1972 13.2606 14.0348C13.6592 13.5365 13.6716 12.3922 13.6716 11.7642C13.6716 10.3083 14.2264 8.81386 14.2264 7.32583C14.2264 6.52572 13.8565 5.89326 13.8565 5.19911C13.8565 4.35408 12.8411 3.90321 13.764 3.16485C13.9374 3.02617 11.9937 2.79498 11.6373 2.79498C10.8051 2.79498 9.97291 2.79498 9.14072 2.79498C7.84297 2.79498 5.5234 2.36005 4.5174 3.16485C4.27959 3.35509 3.72149 4.87249 3.6852 5.19911C3.59336 6.0257 3.50027 6.82459 3.50027 7.6957C3.50027 8.52768 3.31534 9.23049 3.31534 10.0074C3.31534 10.8915 2.68969 11.4868 3.9626 11.4868C5.23888 11.4868 7.36028 11.394 8.34962 12.1855C8.83214 12.5715 9.59953 12.7228 9.79826 13.4183C10.0069 14.1486 10.1578 14.7131 10.1578 15.5553C10.1578 16.2475 10.7126 15.1498 10.7126 14.9081C10.7126 14.3832 10.8976 13.8364 10.8976 13.2642C10.8976 12.4321 11.0825 11.7821 11.0825 10.932C11.0825 10.0382 11.0825 9.14434 11.0825 8.2505C11.0825 7.84401 10.0127 6.34997 10.3428 6.3087C11.1701 6.20529 11.3593 4.89017 12.2846 6.02103C12.6986 6.5271 12.5833 6.65719 12.1921 7.04843C11.5621 7.67843 11.4859 6.70818 11.0414 6.16487C10.7018 5.74979 9.68463 4.82924 9.14072 4.82924C8.51222 4.82924 7.16635 4.57414 6.68522 5.05527C6.06108 5.67941 5.71946 6.28308 5.71946 7.1409C5.71946 8.36756 6.11396 8.06678 6.87015 8.67173C7.09639 8.85272 8.82715 9.44047 8.85304 9.34982C8.93726 9.05506 8.86492 8.24182 8.63729 8.01419C8.39887 7.77577 7.93923 7.97425 7.75372 7.60323" stroke="#446248" stroke-width="3" stroke-linecap="round"/>
<path d="M5.16467 10.0074C5.26143 9.13647 5.71946 9.21412 5.71946 10.0896C5.71946 10.9731 7.60029 10.4039 8.12359 10.6033C8.75873 10.8452 9.52978 10.9272 10.1989 11.0759C11.1712 11.2919 10.6202 10.936 10.2503 10.367C9.68452 9.4965 9.14897 8.53059 8.80168 7.55186C8.66012 7.15292 8.67839 6.35124 8.67839 7.23337C8.67839 9.33722 9.33715 11.7012 9.901 13.706C10.1855 14.7175 10.5277 15.0369 10.5277 16.1101C10.5277 16.7287 10.5806 17.2776 10.3531 17.8465C10.1781 18.2838 10.7126 16.951 10.7126 16.48" stroke="#446248" stroke-width="3" stroke-linecap="round"/>
<path d="M9.78798 7.60323C9.3557 7.54919 8.9526 6.8974 8.48318 7.16144C7.44371 7.74615 6.81674 8.61095 6.08933 9.44228C5.54704 10.062 5.18084 10.9158 4.60987 11.4868C4.22611 11.8706 3.54705 12.3179 3.31534 12.7813" stroke="#446248" stroke-width="3" stroke-linecap="round"/>
</svg>
