<svg width="24" height="24" viewBox="0 0 24 24" fill="none" xmlns="http://www.w3.org/2000/svg">
<g id="Frame">
<path id="Vector" d="M20.25 7V17C20.25 18.385 19.9036 19.4246 19.2629 20.1147C18.6315 20.7946 17.607 21.25 16 21.25H8C6.39295 21.25 5.36848 20.7946 4.7371 20.1147C4.09637 19.4246 3.75 18.385 3.75 17V7C3.75 5.61497 4.09637 4.57535 4.7371 3.88534C5.36848 3.20538 6.39295 2.75 8 2.75H16C17.607 2.75 18.6315 3.20538 19.2629 3.88534C19.9036 4.57535 20.25 5.61497 20.25 7Z" fill="#919191" stroke="#3F3E3E" stroke-width="1.5" stroke-miterlimit="10" stroke-linecap="round" stroke-linejoin="round"/>
<path id="Vector_2" d="M14.5 4.5V6.5C14.5 7.6 15.4 8.5 16.5 8.5H18.5M8 13H12M8 17H16" stroke="#3F3E3E" stroke-width="1.5" stroke-miterlimit="10" stroke-linecap="round" stroke-linejoin="round"/>
</g>
</svg>
