<svg width="20" height="20" viewBox="0 0 20 20" fill="none" xmlns="http://www.w3.org/2000/svg">
<g id="Frame">
<path id="Vector" d="M16.6667 5H13.3333V3.33333C13.3333 2.41667 12.5833 1.66667 11.6667 1.66667H8.33333C7.41667 1.66667 6.66667 2.41667 6.66667 3.33333V5H3.33333C2.41667 5 1.66667 5.75 1.66667 6.66667V16.6667C1.66667 17.5833 2.41667 18.3333 3.33333 18.3333H16.6667C17.5833 18.3333 18.3333 17.5833 18.3333 16.6667V6.66667C18.3333 5.75 17.5833 5 16.6667 5ZM8.33333 3.33333H11.6667V5H8.33333V3.33333ZM16.6667 16.6667H3.33333V6.66667H16.6667V16.6667Z" fill="#919191"/>
<path id="Vector_2" d="M10.8333 8.33333H9.16667V10.8333H6.66667V12.5H9.16667V15H10.8333V12.5H13.3333V10.8333H10.8333V8.33333Z" fill="#919191"/>
</g>
</svg>
