<svg width="22" height="22" viewBox="0 0 22 22" fill="none" xmlns="http://www.w3.org/2000/svg">
<path d="M6 10L10 1C10.7956 1 11.5587 1.31607 12.1213 1.87868C12.6839 2.44129 13 3.20435 13 4V8H18.66C18.9499 7.99672 19.2371 8.0565 19.5016 8.17522C19.7661 8.29393 20.0016 8.46873 20.1919 8.68751C20.3821 8.90629 20.5225 9.1638 20.6033 9.4423C20.6842 9.7207 20.7035 10.0134 20.66 10.3L19.28 19.3C19.2077 19.7769 18.9654 20.2116 18.5979 20.524C18.2304 20.8364 17.7623 21.0055 17.28 21H6M6 10V21M6 10H3C2.46957 10 1.96086 10.2107 1.58579 10.5858C1.21071 10.9609 1 11.4696 1 12V19C1 19.5304 1.21071 20.0391 1.58579 20.4142C1.96086 20.7893 2.46957 21 3 21H6" stroke="#9FFFAC" stroke-width="2" stroke-linecap="round" stroke-linejoin="round"/>
<path d="M7.86996 19.5896C7.86996 18.972 8.23982 18.504 8.23982 17.9252C8.23982 17.2471 8.23982 16.569 8.23982 15.8909C8.23982 15.4314 8.24182 13.1574 8.79462 12.9731C9.03004 12.8946 10.8289 15.576 10.8289 16.117C10.8289 16.7522 10.8954 17.2751 10.0891 17.1855C9.6446 17.1361 9.62932 16.3232 9.88367 16.0759C10.3183 15.6533 12.0464 15.0584 12.596 15.4594C13.8331 16.3622 11.1693 18.8644 10.3871 16.5177C9.96231 15.2433 11.415 13.9577 12.0207 15.4286C12.3662 16.2677 9.78431 17.6394 10.6645 15.4389C11.4612 13.447 12.826 17.1212 11.9282 17.7197C11.3261 18.1211 11.049 17.6147 10.8392 17.0725C10.4484 16.0631 10.7795 15.1106 11.6714 14.5245C12.5493 13.9475 13.5792 13.7042 14.0549 14.7916C14.5091 15.8298 13.8356 16.1247 13.1405 16.7129C12.3988 17.3405 11.2481 17.3167 10.3768 17.5656C10.1061 17.643 8.97955 18.6218 8.97955 18.8499C8.97955 19.8495 15.0367 19.4047 15.8632 19.4047C17.093 19.4047 17.8563 19.2573 17.8563 17.9252C17.8563 17.2951 17.8563 16.6649 17.8563 16.0348C17.8563 15.0964 18.2262 14.2218 18.2262 13.3019C18.2262 12.3338 18.5961 11.4698 18.5961 10.4354C18.5961 9.68174 18.3672 9.78817 17.6714 9.78817C17.0892 9.78817 16.507 9.78817 15.9248 9.78817C15.2494 9.78817 11.485 10.6491 11.3837 9.78817C11.276 8.87328 10.6439 7.90338 10.6439 6.92171C10.6439 6.38908 10.0252 4.47628 10.5515 4.05525C10.6739 3.95728 10.7736 3.521 10.9316 3.521C11.1969 3.521 11.5499 4.03847 11.6508 4.24018C11.869 4.67648 11.7535 5.33397 11.7535 5.81211C11.7535 6.16425 11.7535 7.24518 11.7535 6.27444C11.7535 5.6714 11.5686 5.07512 11.5686 4.51758C11.5686 3.53956 10.6583 1.92008 9.61654 3.27442C8.24699 5.05485 9.67564 7.60072 8.38366 9.3772C8.11216 9.75051 8.19816 10.298 8.01379 10.7128C7.86349 11.051 7.82122 11.9296 7.64393 12.1512C7.46729 12.372 7.33216 13.1807 7.31516 13.4868C7.30155 13.7317 7.31516 13.9813 7.31516 14.2266C7.31516 14.8731 7.36433 13.6552 7.4179 13.4868C7.70718 12.5777 8.422 11.6961 8.61996 10.8053C8.81726 9.91746 9.64492 8.82461 9.52408 10.456C9.44814 11.4811 8.97955 12.4577 8.97955 13.4868C8.97955 13.7574 8.97955 14.0279 8.97955 14.2985C8.97955 14.6787 9.45187 13.673 9.53435 13.3019C9.59706 13.0197 10.3678 11.0111 10.7261 11.1135C11.1221 11.2266 10.685 13.8059 10.6337 14.2163C10.4718 15.5115 10.5412 14.8065 10.9111 13.7642C11.1536 13.0808 12.8254 9.21683 12.8631 11.8224C12.8776 12.8203 12.7943 13.743 12.4933 14.6992C12.4701 14.7727 12.179 15.9937 12.3083 15.9937C12.684 15.9937 14.1434 12.3726 14.6714 11.7813C14.7303 11.7153 15.0583 10.9965 15.0823 11.4526C15.1177 12.1242 15.0232 12.9539 14.8152 13.5896C14.6051 14.2316 14.3774 14.6411 14.3426 15.3361C14.3187 15.8142 14.1121 15.4657 14.4453 14.956C15.0052 14.0997 15.3724 13.1762 16.0892 12.4594C16.8213 11.7273 15.8485 14.2757 15.7399 14.5861C15.27 15.9286 14.7125 17.2361 14.7125 18.6649" stroke="#9FFFAC" stroke-width="3" stroke-linecap="round"/>
<path d="M16.5618 18.48C16.5618 17.2635 16.2899 17.8163 16.007 18.6649" stroke="#9FFFAC" stroke-width="3" stroke-linecap="round"/>
</svg>
