<svg width="19" height="19" viewBox="0 0 19 19" fill="none" xmlns="http://www.w3.org/2000/svg">
<g id="Group">
<g id="Group_2">
<g id="Group_3">
<path id="Vector" d="M9.09691 2.72308C6.97471 2.72308 5.24818 4.4496 5.24818 6.57181C5.24818 7.60178 5.65436 8.77054 6.33472 9.69822C7.10425 10.7475 8.08526 11.3254 9.09691 11.3254C10.1086 11.3254 11.0896 10.7476 11.8592 9.69822C12.5395 8.77054 12.9457 7.60178 12.9457 6.57181C12.9457 4.4496 11.2191 2.72308 9.09691 2.72308ZM9.09691 10.5048C8.36409 10.5048 7.5985 10.034 6.99643 9.21294C6.42422 8.43274 6.06875 7.42071 6.06875 6.57181C6.06875 4.90206 7.42717 3.54364 9.09691 3.54364C10.7667 3.54364 12.1251 4.90206 12.1251 6.57181C12.1251 8.30545 10.6993 10.5048 9.09691 10.5048Z" fill="white"/>
<path id="Vector_2" d="M9.09691 0C4.0809 0 0 4.08084 0 9.09691C0 14.1129 4.08084 18.1938 9.09691 18.1938C14.113 18.1938 18.1938 14.113 18.1938 9.09691C18.1938 4.08084 14.1129 0 9.09691 0ZM9.09691 17.3733C7.45036 17.3732 5.9147 16.8897 4.62411 16.0575C4.66897 14.801 5.23779 13.623 6.20091 12.8051C6.58363 12.4801 7.14249 12.4446 7.59161 12.7168C8.07673 13.0107 8.58324 13.1598 9.09708 13.1598C9.61081 13.1598 10.1172 13.0108 10.6021 12.717C11.0507 12.4451 11.6081 12.4793 11.989 12.802C12.9528 13.6188 13.5249 14.8002 13.5697 16.0576C12.2791 16.8898 10.7434 17.3733 9.09691 17.3733ZM14.3431 15.4933C14.1659 14.2087 13.522 13.0255 12.5194 12.176C11.869 11.6249 10.9275 11.5603 10.1768 12.0152C9.46704 12.4453 8.72678 12.4452 8.01688 12.015C7.26524 11.5595 6.32208 11.6257 5.66973 12.1797C4.6681 13.0303 4.02669 14.21 3.84999 15.4927C2.00158 13.9736 0.820567 11.6706 0.820567 9.09697C0.820567 4.5333 4.53336 0.820567 9.09691 0.820567C13.6605 0.820567 17.3733 4.5333 17.3733 9.09691C17.3733 11.6709 16.192 13.9741 14.3431 15.4933Z" fill="white"/>
</g>
</g>
</g>
</svg>
