<svg width="18" height="18" viewBox="0 0 18 18" fill="none" xmlns="http://www.w3.org/2000/svg">
<g id="Frame" clip-path="url(#clip0_96_7)">
<path id="Vector" d="M1 18C0.71667 18 0.479003 17.904 0.287003 17.712C0.0950034 17.52 -0.000663206 17.2827 3.4602e-06 17V11C3.4602e-06 10.7167 0.0960036 10.479 0.288004 10.287C0.480004 10.095 0.717337 9.99934 1 10C1.28334 10 1.521 10.096 1.713 10.288C1.905 10.48 2.00067 10.7173 2 11V14.6L14.6 2H11C10.7167 2 10.479 1.904 10.287 1.712C10.095 1.52 9.99934 1.28267 10 1C10 0.71667 10.096 0.479003 10.288 0.287003C10.48 0.0950034 10.7173 -0.000663206 11 3.4602e-06H17C17.2833 3.4602e-06 17.521 0.0960036 17.713 0.288004C17.905 0.480004 18.0007 0.717337 18 1V7C18 7.28334 17.904 7.521 17.712 7.713C17.52 7.905 17.2827 8.00067 17 8C16.7167 8 16.479 7.904 16.287 7.712C16.095 7.52 15.9993 7.28267 16 7V3.4L3.4 16H7C7.28334 16 7.521 16.096 7.713 16.288C7.905 16.48 8.00067 16.7173 8 17C8 17.2833 7.904 17.521 7.712 17.713C7.52 17.905 7.28267 18.0007 7 18H1Z" fill="#222222"/>
</g>
<defs>
<clipPath id="clip0_96_7">
<rect width="18" height="18" fill="white"/>
</clipPath>
</defs>
</svg>
