<svg width="24" height="24" viewBox="0 0 24 24" fill="none" xmlns="http://www.w3.org/2000/svg">
<path d="M16 0C15.3691 0 14.8571 0.512 14.8571 1.14286C14.8571 1.77371 15.3691 2.28571 16 2.28571H20.0982L10.6205 11.7634C10.1743 12.2097 10.1743 12.9332 10.6205 13.3795C10.844 13.6029 11.136 13.7143 11.4286 13.7143C11.7211 13.7143 12.0132 13.6029 12.2366 13.3795L21.7143 3.90179V8C21.7143 8.63086 22.2263 9.14286 22.8571 9.14286C23.488 9.14286 24 8.63086 24 8V1.14286C24 0.512 23.488 0 22.8571 0H16ZM3.42857 1.14286C1.53771 1.14286 0 2.68057 0 4.57143V20.5714C0 22.4623 1.53771 24 3.42857 24H19.4286C21.3194 24 22.8571 22.4623 22.8571 20.5714V13.7143C22.8571 13.0834 22.3451 12.5714 21.7143 12.5714C21.0834 12.5714 20.5714 13.0834 20.5714 13.7143V20.5714C20.5714 21.2017 20.0589 21.7143 19.4286 21.7143H3.42857C2.79829 21.7143 2.28571 21.2017 2.28571 20.5714V4.57143C2.28571 3.94114 2.79829 3.42857 3.42857 3.42857H10.2857C10.9166 3.42857 11.4286 2.91657 11.4286 2.28571C11.4286 1.65486 10.9166 1.14286 10.2857 1.14286H3.42857Z" fill="#919191"/>
</svg>
